<svg width="512" height="512" viewBox="0 0 512 512" xmlns="http://www.w3.org/2000/svg" role="img" aria-labelledby="title desc">
  <title id="title">Trueview Logo</title>
  <desc id="desc">Rounded green square with the word Trueview in a modern geometric type treatment.</desc>
  <defs>
    <linearGradient id="tvGreen" x1="0" y1="0" x2="1" y2="1">
      <stop offset="0%" stop-color="#00b140" />
      <stop offset="100%" stop-color="#00a133" />
    </linearGradient>
  </defs>
  <rect width="512" height="512" rx="96" fill="url(#tvGreen)" />
  <g fill="#ffffff" transform="translate(72 180)">
    <path d="M47.6 26.1H15.9v-26H0v134.2h15.9V82.1h31.7c32.2 0 52.2-16.7 52.2-41 0-24.4-20-41-52.2-41zM46.9 67H15.9V39.4h31c15.9 0 24.9 6.5 24.9 13.8 0 7.5-9 13.8-24.9 13.8zM175.5 0c-34.5 0-61.1 26.4-61.1 67.1s26.6 67.1 61.1 67.1c21.4 0 39.1-9.4 50.1-23.7v20.6h15.9V0h-15.9v20.6C214.6 9.4 196.9 0 175.5 0zm1 108.7c-25.4 0-44.3-18.8-44.3-41.6 0-23 18.9-41.6 44.3-41.6 25.4 0 44.3 18.7 44.3 41.6 0 22.8-18.9 41.6-44.3 41.6zM338.3 18.8c-9.8-12.6-24.7-18.8-40.6-18.8-32.4 0-58.7 26.4-58.7 67.1s26.3 67.1 58.7 67.1c16.1 0 31.4-6.8 40.6-18.8v17.6c0 22.1-15.2 35.9-38.3 35.9-15.2 0-29.1-6.2-38.8-16.3l-8.7 12.7c12.6 13.5 31.5 21.7 51.8 21.7 32.6 0 54.2-20.2 54.2-52.6V0h-15.9v18.8zM299.7 108.7c-24.8 0-43.1-18.8-43.1-41.6 0-23 18.3-41.6 43.1-41.6 25.1 0 44.6 18.7 44.6 41.6 0 22.8-19.5 41.6-44.6 41.6z" />
    <path d="M383.5 0c-34.6 0-61.4 26.4-61.4 67.1s26.8 67.1 61.4 67.1 61.4-26.4 61.4-67.1S418.1 0 383.5 0zm0 108.7c-25.6 0-44.6-18.8-44.6-41.6 0-23 18.9-41.6 44.6-41.6 25.6 0 44.6 18.7 44.6 41.6 0 22.8-19 41.6-44.6 41.6z" />
  </g>
</svg>
